<svg role="img" xmlns="http://www.w3.org/2000/svg" viewBox="0 0 2642 1024">
	<style>.path1 { fill: #eb7f00 } </style>
	<path class="path1" d="M1963.707 633.618c-19.15 23.568-41.776 39.511-50.522 39.87-14.845 0.628-30.99-30.138-61.801-96.043-19.24-41.978-33.883-77.162-43.862-106.425 19.845-26.191 51.598-42.718 80.391-43.951 20.025-0.852 35.049 3.767 43.996 7.759 5.337 2.332 12.154-1.413 17.11-7.759 10.831-11.84 21.325-32.381 20.608-48.952-0.83-19.15-21.482-32.268-46.754-31.192-46.216 1.996-91.401 50.499-138.2 100.572-22.559 23.702-42.516 47.248-65.703 77.072l-1.749 0.112c22.626-125.037 42.965-241.239 65.501-367.106l-8.162-26.73-190.74 24.375 0.964 38.57 38.435-3.139c29.959-2.467 45.902 14.015 43.458 51.396-5.673 86.983-12.804 160.961-26.012 238.728-13.791 81.22-42.897 158.718-119.611 226.708-14.665 12.984-49.513 46.732-49.513 46.732 49.109-10.876 95.796-28.142 124.88-43.929 36.776-19.935 101.806-67.16 111.201-124.925 2.153-13.141 15.518-25.138 25.519-36.91 18.836 52.428 41.148 103.936 59.424 144.21 20.159 41.911 38.457 62.586 62.855 61.51 25.272-1.076 75.076-23.792 120.194-92.096l-11.907-28.456z"></path>
	<path class="path1" d="M596.057 3.095c-62.833-17.356-120.664 41.126-163.046 107.277-32.941 51.486-57.294 110.932-69.111 179.954l-3.207 18.007-63.236 0.359-14.172 42.83 70.502-0.404c-11.526 83.328-11.324 153.135-28.613 262.318-3.386 22.469-6.996 42.27-10.674 60.007-39.153-30.542-111.807-34.601-183.946-5.785-92.119 36.82-148.246 112.973-125.441 170.177 22.873 57.226 116.045 73.776 208.164 36.955 49.916-19.913 89.114-51.441 111.067-85.212 34.376-40.924 58.931-96.289 81.848-198.409 21.236-91.199 41.373-170.334 54.984-241.082l72.139-7.826 18.993-35.049-84.382 0.493 2.467-18.007c15.226-92.634 53.033-218.501 110.663-218.838 33.143-0.179 39.018 75.076 49.58 92.455 0 0 17.379 10.36 16.482-9.62-3.521-74.874 6.324-134.747-51.060-150.601zM195.023 837.274c-56.33 24.263-114.139 15.518-129.208-19.464-15.002-34.982 18.41-82.925 74.762-107.143 56.307-24.218 114.139-15.495 129.186 19.487 15.024 34.959-18.433 82.947-74.74 107.12z"></path>
	<path class="path1" d="M2641.613 405.317c-1.099-39.265-23.904-58.348-46.62-58.213-18.276 0.090-36.551 11.548-46.059 29.062-6.077 9.665-6.884 20.967-3.319 30.542 4.395 12.176 12.356 25.25 12.513 47.091 1.211 61.106-47.225 138.155-91.379 206.482l-1.727 0.022c-4.776-70.659-9.441-123.019-19.419-194.552-10.988-86.333-30.34-117.66-61.756-117.48-37.538 0.224-87.903 46.754-125.060 108.062l-3.341 24.196c25.138-32.425 62.563-45.476 68.64-45.499 5.292-0.022 12.356 8.656 18.59 39.153 16.684 76.915 33.569 209.733 33.098 280.325-20.451 26.617-158.696 149.076-749.124 76.040-615.97-76.197-876.651 106.762-955.674 163.652l-40.386 29.802c0 0 399.935-150.085 764.081-152.148 375.246-2.13 611.059 117.592 822.407 31.753 142.416-57.787 226.708-168.069 251.779-203.724 49.356-71.869 99.541-129.208 139.366-196.638 24.981-40.274 34.399-72.609 33.39-97.926z"></path>
	<path class="path1" d="M539.683 754.461c30.474-0.202 92.679-26.124 141.81-81.377 1.054-1.188 4.44-4.754 8.499-9.015 13.208 48.997 48.19 90.818 125.037 90.392 54.11-0.314 111.56-24.196 149.793-57.563 63.393-53.594 91.76-134.926 91.334-210.855-0.045-7.108-0.426-13.993-1.076-20.675 21.886-23.254 44.131-38.928 51.396-38.973 6.099-0.022 9.687 14.8 13.342 42.651 7.288 54.984 3.184 209.128 18.59 270.794 4.35 17.446 25.967 17.872 38.009 5.808 60.613-60.59 94.159-157.844 140.017-233.144h1.704c11.773 75.839 14.082 213.837 34.331 237.921 8.409 9.956 27.761 3.722 35.811-0.224 68.080-33.345 133.581-149.121 161.297-192.915 19.89-32.425 50.342-124.028 50.185-152.821-0.179-34.062-22.133-57.451-48.302-57.339-20.989 0.135-38.345 15.921-46.104 33.412-4.305 8.768-4.238 20.092-0.695 27.066 5.27 9.553 10.629 19.913 10.719 38.211 0.314 54.11-45.813 139.994-77.005 182.936h-1.727c-14.486-88.934-25.384-166.993-41.664-263.776l-31.394 0.135c-45.768 87.522-95.123 160.714-138.29 238.661l-1.749 0.022c0.65-42.785 0.381-92.545-3.498-158.001-3.924-74.179-16.011-98.868-44.826-98.666-33.547 0.157-86.49 33.928-125.912 87.163-15.428-54.11-56.733-87.544-123.109-87.163-37.516 0.224-78.485 13.522-114.139 32.941-66.129 35.273-129.365 117.682-128.737 231.148 0.045 6.122 0.314 12.356 0.852 18.567-7.759 7.49-16.998 16.37-19.419 18.208-17.648 13.656-37.919 24.801-44.333 24.846-6.996 0.022-7.916-9.598-1.144-50.634 26.774-152.193 55.455-290.169 88.239-452.61 5.92-26.169 9.373-36.17-0.718-40.139-9.755-3.812-43.57 1.256-69.874 14.912-23.164 12.042-35.161 51.576-40.050 68.663-39.915 139.546-59.603 295.932-82.229 428.952-16.168 94.675 1.48 112.592 25.025 112.48zM870.529 390.181c7.871-3.521 15.697-4.44 21.796-4.462 28.815-0.179 50.791 28.501 51.172 95.706 0.695 123.938-38.951 215.81-72.026 229.085-7.826 2.646-12.176 4.418-21.796 4.462-26.169 0.157-52.517-29.376-52.876-96.559-0.807-142.281 51.105-217.604 73.731-228.233z"></path>
	<path class="path1" d="M2253.159 650.929c-77.117 83.149-141.25 104.833-191.48 104.833-51.127 0-99.653-27.716-99.653-126.517 0-84.046 39.848-173.294 98.778-220.968 32.044-26.842 90.123-56.307 132.549-56.307 58.079 0 82.319 35.52 82.319 74.516 0 85.772-122.167 130.823-208.814 154.233-0.875 6.929-0.875 14.71-0.875 20.787 0 49.4 14.733 87.522 53.728 87.522 32.919 0 77.991-21.684 117.861-60.68l15.585 22.581zM2128.368 403.994c-14.733 11.257-46.799 57.182-58.056 144.703 84.92-27.739 114.386-64.111 114.386-109.183 0-35.52-18.208-47.651-31.214-47.651-7.781 0-16.437 3.453-25.115 12.131z"></path>
</svg>
