<?xml version="1.0" encoding="UTF-8" standalone="no"?>
<!-- Created with Inkscape (http://www.inkscape.org/) -->

<svg
   xmlns:dc="http://purl.org/dc/elements/1.1/"
   xmlns:cc="http://creativecommons.org/ns#"
   xmlns:rdf="http://www.w3.org/1999/02/22-rdf-syntax-ns#"
   xmlns:svg="http://www.w3.org/2000/svg"
   xmlns="http://www.w3.org/2000/svg"
   xmlns:sodipodi="http://sodipodi.sourceforge.net/DTD/sodipodi-0.dtd"
   xmlns:inkscape="http://www.inkscape.org/namespaces/inkscape"
   width="1000"
   height="1000"
   viewBox="0 0 1000 1000"
   id="svg5355"
   version="1.1"
   inkscape:version="0.91 r13725"
   sodipodi:docname="Yamaha Corporation 6.svg">
  <defs
     id="defs5357" />
  <sodipodi:namedview
     id="base"
     pagecolor="#ffffff"
     bordercolor="#666666"
     borderopacity="1.0"
     inkscape:pageopacity="0.0"
     inkscape:pageshadow="2"
     inkscape:zoom="0.35"
     inkscape:cx="-60.714286"
     inkscape:cy="520"
     inkscape:document-units="px"
     inkscape:current-layer="layer1"
     showgrid="false"
     units="px"
     inkscape:window-width="1366"
     inkscape:window-height="705"
     inkscape:window-x="-8"
     inkscape:window-y="-8"
     inkscape:window-maximized="1" />
  <metadata
     id="metadata5360">
    <rdf:RDF>
      <cc:Work
         rdf:about="">
        <dc:format>image/svg+xml</dc:format>
        <dc:type
           rdf:resource="http://purl.org/dc/dcmitype/StillImage" />
        <dc:title></dc:title>
      </cc:Work>
    </rdf:RDF>
  </metadata>
  <g
     inkscape:label="Layer 1"
     inkscape:groupmode="layer"
     id="layer1"
     transform="translate(0,-52.362178)">
    <path
       style="fill:#FAFAFA"
       d="m 499.99387,52.362152 c 130.89958,0 260.99815,53.874178 353.56196,146.440088 C 946.1092,291.35352 1000,421.4513 1000,552.35401 c 0,130.9027 -53.88876,260.99003 -146.44212,353.55175 -92.56381,92.56485 -222.66443,146.45644 -353.56401,146.45644 -130.9027,0 -261.00461,-53.89159 -353.5538,-146.45644 C 53.88776,813.34404 0,683.25671 0,552.35401 0,421.4513 53.88881,291.35352 146.44007,198.80224 238.98927,106.23633 369.09117,52.362152 499.99387,52.362152 Z m 0,56.391528 c -116.12282,0 -231.54341,47.80479 -313.67252,129.93392 -82.12806,82.11553 -129.9135,197.52896 -129.9135,313.66641 0,116.13327 47.78643,231.56753 129.91554,313.66844 82.12911,82.13225 197.54766,129.92166 313.67048,129.92166 116.13537,0 231.56342,-47.78941 313.66641,-129.92166 C 895.80402,783.92154 943.60847,668.48728 943.60847,552.35401 943.60743,436.21656 895.80402,320.80313 813.66028,238.6876 731.55833,156.55743 616.12924,108.75368 499.99387,108.75368 Z m 0,22.95076 c 1.60124,0 3.19021,0.50796 4.47183,1.42191 1.28998,0.91291 2.2911,2.2468 2.80918,3.7415 l 37.08638,105.2491 c 0.89828,2.57368 0.94084,5.44105 0.0979,8.04398 -0.85755,2.58726 -2.57489,4.89322 -4.82477,6.45477 -6.46867,4.44337 -11.52941,10.9287 -14.27231,18.28104 -2.75542,7.37114 -3.19503,15.56757 -1.22403,23.19148 1.95324,7.59467 6.29976,14.5841 12.2608,19.69073 10.7303,9.19695 19.42379,20.69988 25.32947,33.52441 5.8942,12.81203 8.97221,26.91721 8.97221,41.038 l 0,37.53518 184.85047,-106.71385 22.86711,39.6181 -207.71553,119.91717 0,28.83226 24.9643,14.41308 207.71553,-119.93145 22.86506,39.62829 -184.8321,106.71387 32.51255,18.75841 c 12.20515,7.063 22.88091,16.7928 31.03961,28.32633 8.17019,11.50219 13.77882,24.78042 16.38175,38.67559 1.44978,7.70643 5.31681,14.9623 10.91436,20.47003 5.62471,5.51712 12.9506,9.23159 20.68627,10.5247 7.76387,1.32027 15.90553,0.16581 22.9936,-3.20902 2.45983,-1.17612 5.31703,-1.51774 7.98889,-0.95475 2.67083,0.56299 5.14742,2.02494 6.91788,4.10666 l 72.61006,84.71785 c 1.04138,1.21268 1.68789,2.75802 1.82994,4.33106 0.16817,1.57722 -0.19915,3.20423 -1.01596,4.58403 -0.77294,1.3798 -2.01021,2.47496 -3.4579,3.15599 -1.43621,0.67267 -3.09528,0.8695 -4.64116,0.58957 L 746.49511,745.89719 c -2.68649,-0.50867 -5.2035,-1.91092 -7.01783,-3.93937 -1.8279,-2.02427 -2.96952,-4.66905 -3.17842,-7.39524 -0.63298,-7.82027 -3.7111,-15.44064 -8.70701,-21.51658 -4.99069,-6.04878 -11.88111,-10.55188 -19.46428,-12.65658 -7.57899,-2.11305 -15.78981,-1.83103 -23.20168,0.78339 -13.30398,4.69613 -27.63498,6.47293 -41.68265,5.17565 -14.05081,-1.32131 -27.80396,-5.6803 -40.03835,-12.74226 l -32.50234,-18.75842 0,213.42161 -45.73423,0 0,-239.86495 -24.9745,-14.3988 -24.96633,14.3988 0,239.86495 -45.73218,0 0,-213.42161 -32.51459,18.75638 c -12.20724,7.06301 -25.98964,11.42198 -40.03835,12.74225 -14.04872,1.29729 -28.36405,-0.47747 -41.68265,-5.1736 -7.41187,-2.61442 -15.62607,-2.89848 -23.19149,-0.78543 -7.59466,2.10574 -14.47115,6.60779 -19.47855,12.65657 -4.99173,6.0749 -8.07099,13.69526 -8.70293,21.51659 -0.19741,2.72618 -1.34952,5.37202 -3.17638,7.39524 -1.81432,2.02845 -4.33477,3.4307 -7.00559,3.93938 l -109.6944,20.53327 c -1.54588,0.27993 -3.20599,0.0821 -4.64115,-0.58958 -1.43516,-0.67998 -2.68388,-1.77618 -3.45995,-3.15599 -0.8001,-1.37876 -1.1678,-3.00477 -0.99963,-4.58199 0.14205,-1.57408 0.77427,-3.12041 1.81565,-4.3331 l 72.62434,-84.71786 c 1.75687,-2.08172 4.22969,-3.54366 6.90155,-4.10666 2.67396,-0.56299 5.52698,-0.21932 7.9889,0.9568 7.10165,3.37483 15.22872,4.52929 22.99155,3.20902 7.75134,-1.29311 15.07853,-5.00758 20.67608,-10.5247 5.62471,-5.50668 9.47956,-12.7636 10.94293,-20.47003 2.58726,-13.89622 8.21079,-27.17445 16.36949,-38.67559 8.15557,-11.53353 18.8293,-21.26333 31.03758,-28.32633 l 32.52886,-18.75841 -184.85045,-106.71387 22.86711,-39.62829 207.71553,119.93145 24.97654,-14.41308 0,-28.83226 -207.71554,-119.91717 22.85487,-39.6181 184.86067,106.71385 0,-37.53518 c 0,-14.12079 3.08045,-28.22597 8.95793,-41.038 5.9224,-12.82454 14.61175,-24.32746 25.32743,-33.52441 5.96523,-5.10663 10.32592,-12.09606 12.27916,-19.69073 1.95428,-7.62286 1.51886,-15.82034 -1.22404,-23.19148 -2.75647,-7.35338 -7.78862,-13.83767 -14.28863,-18.28104 -2.24884,-1.56155 -3.98222,-3.86751 -4.80843,-6.45477 -0.84606,-2.60293 -0.81807,-5.4703 0.0959,-8.04398 l 37.0721,-105.2491 c 0.52016,-1.49366 1.53128,-2.82859 2.82753,-3.7415 1.27744,-0.91395 2.85312,-1.42191 4.45958,-1.42191 z m 0,229.19336 c -6.54074,0 -13.02379,2.68545 -17.63637,7.3116 -4.63973,4.62616 -7.32996,11.1225 -7.32996,17.64863 l 0,70.44555 24.96633,14.39878 24.97451,-14.39878 0,-70.44555 c 0,-6.52613 -2.70077,-13.02247 -7.32588,-17.64863 -4.61258,-4.62615 -11.11101,-7.3116 -17.64863,-7.3116 z m 0,158.29695 -28.72005,16.58167 0,33.14497 28.72005,16.59594 28.71599,-16.59594 0,-33.14497 z m -95.67505,59.56996 -60.99392,35.21359 c -5.65186,3.26306 -9.92578,8.86227 -11.63042,15.16382 -1.68794,6.30051 -0.77244,13.27792 2.50315,18.92978 3.26202,5.67903 8.83137,9.95478 15.14546,11.64063 6.31618,1.69002 13.2922,0.76194 18.94406,-2.50113 l 61.00616,-35.21359 0,-28.83227 z m 191.34808,0 -24.9643,14.40083 0,28.83227 60.99392,35.21359 c 5.66754,3.26307 12.62863,4.19115 18.95629,2.50113 6.31409,-1.68481 11.89802,-5.9616 15.14751,-11.64063 3.26411,-5.65186 4.17577,-12.62927 2.48888,-18.92978 -1.69003,-6.30155 -5.97752,-11.90076 -11.63043,-15.16382 z"
       id="path4739"
       inkscape:connector-curvature="0"
       sodipodi:nodetypes="scscscscsscscscscsscccccccccscccccccccccccccccccccccccccccccccccccccccccccccccccccccccccccccccccccscccccccccsscscccscsccccccccscccccccccccccccc" />
  </g>
</svg>
